<?xml version="1.0" encoding="utf-8"?>
<!-- Generator: Adobe Illustrator 21.1.0, SVG Export Plug-In . SVG Version: 6.00 Build 0)  -->
<svg version="1.1" id="Layer_1" xmlns="http://www.w3.org/2000/svg" xmlns:xlink="http://www.w3.org/1999/xlink" x="0px" y="0px"
	 viewBox="0 0 150 150" style="enable-background:new 0 0 150 150;" xml:space="preserve">
<style type="text/css">
	.st0{fill-rule:evenodd;clip-rule:evenodd;}
</style>
<g>
	<path class="st0" d="M126.6,39.6c0-8.9-0.2-17.9,0.1-26.8c0.1-3.2,1.3-6.3,2.5-9.4c0.4-0.9,2.5-2.1,3.3-1.8c1.3,0.6,2.2,2.1,3,3.4
		c0.4,0.6,0.2,1.6,0.2,2.5c-0.1,15.3-0.2,30.6-0.3,46c0,4.7,0.1,9.5-0.1,14.2c-0.7,17.3-2.3,34.4-9.5,50.6
		c-4.9,11.1-13.5,18.3-23.5,24.1c-9,5.3-18.9,8.9-29.5,7.7c-7.3-0.8-14.4-3.6-21.6-5.7c-14.2-4.1-20.7-14.9-26.6-27.6
		c-8.5-18.3-8.9-38-10.7-57.2c-1.2-12.2,1.9-24.9,3.5-37.3C18.1,17.2,19.6,12.1,21,7c0.5-1.8,1.5-3.7,2.8-5.1
		C26-0.6,29.3,0.2,30,3.6c0.4,1.8,0.2,3.9-0.1,5.8c-2.1,12.9-4.3,25.9-6.4,38.8c-0.4,2.7-1,5.6-0.8,8.3c1.6,17.8,2.6,35.6,7.7,52.9
		c2.1,7.2,4.9,14.2,10,20c11.1,12.7,34.6,16.8,51.6,7.8c16.1-8.5,26.2-21.1,29.3-39.3c2.4-13.8,5-27.4,4.2-41.5
		C125.2,50.8,126.2,39.6,126.6,39.6z"/>
	<path class="st0" d="M67.4,87.5c10.3-4.6,8.1-12.6,7.8-20.3c-0.4-10.6-0.5-21.2-0.6-31.7c0-1.7,0-3.5,0.6-4.9c0.4-1,2-2.2,3-2.2
		c1,0.1,2.1,1.4,2.9,2.5c0.4,0.6,0.3,1.6,0.4,2.4c0.5,15,1,30.1,1.5,45.1c0.1,1.7,0.2,3.4,0,5C81.9,90.5,75.2,92.9,67.4,87.5z"/>
	<path class="st0" d="M96.2,117c-13.3-20.7-23.8-12.5-34.9-1.2c-3.4-2-3.7-5.6-2-7.9c5.8-7.9,12.8-12.7,21.1-12.1
		c7.6,0.6,13.2,5.9,16.2,16C96.9,112.4,96.6,113.3,96.2,117z"/>
	<path class="st0" d="M32.5,27.7c3.6-6,17.6-15.6,22.6-15.8c1.3-0.1,3.1,0.9,4,2c0.5,0.6-0.1,3.1-0.9,3.5c-7,4-14,7.7-21.2,11.3
		C36.2,29.2,34.6,28.2,32.5,27.7z"/>
	<path class="st0" d="M104.5,44.3c-4.6,0.1-8-2.2-8.1-5.4c-0.2-3.9,3.6-6.8,8.8-6.8c3.8,0,6.3,2.4,6.6,6
		C111.9,41.8,109,44.3,104.5,44.3z"/>
	<path class="st0" d="M53.3,45.7c-4.5-0.1-6.9-2.1-6.8-5.5c0.2-4,4.1-7.4,8.6-7.4c3.7,0,6.1,3.2,5.9,7.5
		C60.9,44.1,58.4,45.9,53.3,45.7z"/>
	<path class="st0" d="M120.9,26.2c-9.2,1.4-22.7-3.5-30.8-10.4c2.4-0.7,4-1.8,5-1.5C102.1,16.9,115.5,19.8,120.9,26.2z"/>
</g>
</svg>
