<?xml version="1.0" encoding="utf-8"?>
<!-- Generator: Adobe Illustrator 21.1.0, SVG Export Plug-In . SVG Version: 6.00 Build 0)  -->
<svg version="1.1" id="Layer_1" xmlns="http://www.w3.org/2000/svg" xmlns:xlink="http://www.w3.org/1999/xlink" x="0px" y="0px"
	 viewBox="0 0 150 150" style="enable-background:new 0 0 150 150;" xml:space="preserve">
<style type="text/css">
	.st0{fill-rule:evenodd;clip-rule:evenodd;}
</style>
<g>
	<path class="st0" d="M9.4,0.1c5.5,2.4,5.1,6.3,5.3,9.9c1.3,19.1,2.4,38.2,4.2,57.2c0.9,9.3,3.3,18.5,4.9,27.8
		c1.9,10.6,7.3,19.8,12.9,28.6c2.1,3.4,6.3,5.7,9.8,7.9c4.3,2.7,8.8,5.2,13.6,7c2.7,1,6.3,1.1,9.1,0.4c9.2-2.5,17.3-6.7,24.7-13
		c12.8-10.9,19.9-24.3,23.5-40.5c3.8-17,7.1-34,9.3-51.3c0.9-7.3,3.5-14.4,5.4-21.6c0.4-1.3,1.1-2.7,2-3.8c1.8-2.4,4.4-4.6,7.2-2.7
		c1.6,1.1,2.6,4.5,2.2,6.6c-5.8,28.5-8.1,57.7-17.4,85.5c-3.8,11.3-8.6,21.6-18.3,29.3c-7.4,5.9-13.8,12.9-22.8,16.5
		c-10.2,4.1-20.7,6.5-31.7,4.8c-2.4-0.4-5.2-1.3-6.9-3c-6-6.1-11.8-12.4-17.3-18.9c-9.4-11-12.2-25-16.3-38.3
		C7.6,71.1,6.5,53.1,6,35.2c-0.3-10,0.8-20,1.4-29.9C7.5,3.7,8.5,2.3,9.4,0.1z"/>
	<path class="st0" d="M117.9,11.9c-1.7,1.1-3.3,2.1-4.8,3.1c-2.6,1.7-5.3,3.2-7.7,5c-2.3,1.8-2.8,4.3-0.8,6.8c1.9,2.4,3.8,5.1,1,7.5
		c-2.2,1.8-5.5,2.6-8.4,3.2c-1.5,0.3-3.3-0.7-4.9-1.2c-6-1.6-9.9,0.7-10.9,6.8c-0.4,2.8,0.1,5.7,0.2,8.5c0.1,9.7,0.7,19.4,0,29
		c-0.6,8.1-3.4,9.7-11.3,8.7c-1.1-0.1-2.3-0.4-3.4-0.6c-2.8-0.7-6.2-0.9-6.3-4.6c-0.1-3.8,3.3-4.4,6.1-4.7c4.9-0.5,5.9-3.3,5.8-7.6
		c-0.4-9.1-0.1-18.2-0.6-27.3c-0.4-8.4,4-14.3,9.9-18.9c6.9-5.4,14.4-10.3,21.8-15C109.1,7.1,112.6,7.7,117.9,11.9z"/>
	<path class="st0" d="M97.9,103.2c-5.1,7.6-9.3,6.9-16.5,3.7c-3.1-1.4-6.1-3.1-9.3-4.3c-5.7-2.1-10.6-0.8-14.4,4.2
		c-1.6,2-3.2,4.2-5.3,5.5c-1.3,0.8-3.9,0.6-5.3-0.2c-0.9-0.5-1.2-3.1-0.9-4.5c1.5-6.8,11.6-13.9,19.7-13.9c2,0,4.1,0,5.9,0.6
		c4.3,1.3,8.5,3.1,12.9,4.3C88.9,99.7,92.9,102.2,97.9,103.2z"/>
	<path class="st0" d="M41.6,19.9c-2.6-3.3-4.5-5.7-7.2-9.1c2.6-0.5,4.5-1.5,5.9-1c2.9,1,6,2.3,8,4.5c4.9,5.1,9.4,10.7,13.7,16.3
		c0.9,1.2,0.5,3.5,0.7,5.3c-1.7-0.4-4-0.2-4.9-1.2c-2.6-2.9-5.3-2.9-8.4-1.2c-4.3,2.4-8.4,1.1-12.2-0.9c-5.2-2.8-5.2-7.2-0.1-10.2
		C38.2,21.6,39.4,21,41.6,19.9z"/>
</g>
</svg>
