<?xml version="1.0" encoding="utf-8"?>
<!-- Generator: Adobe Illustrator 21.1.0, SVG Export Plug-In . SVG Version: 6.00 Build 0)  -->
<svg version="1.1" id="Layer_1" xmlns="http://www.w3.org/2000/svg" xmlns:xlink="http://www.w3.org/1999/xlink" x="0px" y="0px"
	 viewBox="0 0 150 150" style="enable-background:new 0 0 150 150;" xml:space="preserve">
<style type="text/css">
	.st0{fill-rule:evenodd;clip-rule:evenodd;}
</style>
<g>
	<path class="st0" d="M51.4,84.3c1.2,2.6,1,3.4,4.1,4.4c17.1,5.8,27.6,6.3,41.7-1.1c1.2-0.6,2.6-2.5,4-3.7c0.4,2.1,1.5,4.5,1.2,6.4
		c-1.6,8.8,0.8,4-6.8,19.1c-2.5,5-12.4,8.7-16.7,9.3c-10.2,1.6-18.3-4.8-24.5-14.9c-2.3-3.7-3.5-8.5-5.1-12.8
		C48.6,89.1,48.8,89.1,51.4,84.3z"/>
	<path class="st0" d="M76.9,30.3c1,2.2,2.5,4.5,2.8,6.8c1.2,9.3,2.3,18.6,3,27.9c0.3,3.6-0.7,7.2-1.3,10.7c-0.3,2.1-2,3.7-4.9,3.6
		c-3.4-0.2-7.3-0.2-10-1.5c-2.4-1.1-1.2-3.8,1.6-4.5c7.5-1.9,7.1-6.2,6.6-10.8C73.8,54.2,73,46,72.5,37.8c-0.1-2.4,0.8-4.8,1.3-7.2
		C74.9,30.5,75.9,30.4,76.9,30.3z"/>
	<path class="st0" d="M57.4,28.2c4.2-0.1,6.8,2.2,7.1,6.3c0.4,5,1.5,9.4-9,9.4c-3.8,0-6.7-3-6.8-6.8C48.7,32.7,52.9,28.4,57.4,28.2z
		"/>
	<path class="st0" d="M103.5,39.5c-1.5,1.1-3.7,3.9-6.2,4.3c-5.5,0.9-10.4-3.3-10.6-7.7c-0.2-4,3.9-8,8-7.8
		C99.1,28.4,103.4,32.9,103.5,39.5z"/>
	<path class="st0" d="M125.6,38.4c0-11.8-1.8-24.6,2.6-35.9c1.6-4.2,5.2,0,6.2,1.6c2.9,4.7,0.1,19.7,0.1,25.3
		c-0.1,17.2,0.4,34.5-1.2,51.6c-2.9,31.4-18.9,65.2-54.9,67.3c-31.1,1.9-51.5-19.1-59-47.1c-4.2-15.7-6.3-34-6-50.2
		C13.7,38.2,14.3,11.5,23.4,1c2.2-2.6,5.5-1.7,6.2,1.6c3.9,18.7-8.3,40.5-6.6,60.1c1.8,20.8,2.4,48.2,16.9,64.9
		c11,12.6,34.3,16.7,51.3,7.7c15.5-8.2,26.1-21.7,29.1-39.1C121,92.2,126.3,38.4,125.6,38.4C125.6,29.6,125.2,38.4,125.6,38.4z"/>
</g>
<path class="st0" d="M111.2,25.4c0.8-0.4,1.1-1.5,0.4-2.1c-5.3-5.4-13.2-10.5-17.8-10.3c-2.4,0.1-6.5,1-9.2,3.8
	c-1.6,1.6,0.5,3.8,0.8,3.8c14.1-1.9,14.7-2,22.7,5.3c0.3,0.3,0.7,0.4,1.1,0.3C109.7,26.1,110.4,25.8,111.2,25.4z"/>
<path class="st0" d="M40.4,24.9c-0.8-0.4-1-1.5-0.3-2.1c5.5-5.2,13.6-9.9,18.2-9.5c2.4,0.2,6.4,1.3,9,4.2c1.5,1.6-0.6,3.8-0.9,3.7
	c-14-2.5-14.6-2.6-22.9,4.3c-0.3,0.2-0.7,0.4-1.1,0.3C41.9,25.6,41.2,25.2,40.4,24.9z"/>
</svg>
